<svg width="176" height="52" fill="none" xmlns="http://www.w3.org/2000/svg"><path fill-rule="evenodd" clip-rule="evenodd" d="M0 16.4v.1l29.8 13.8 29.8-13.8L29.8 2.5 0 16.4zm10.7 0l19-8.8 19 8.8-19 8.8-19-8.8zm19 19.2L0 22.1v5l29.8 13.6L59.6 27v-5L29.8 35.6zm0 10.2L0 32.2v5l29.8 13.6 29.8-13.6v-5L29.8 45.8zM169.2 26.2a8.6 8.6 0 00-2.3-5.9 7.7 7.7 0 00-5.5-2.4c-1 0-2 .2-3 .7-1 .4-1.7 1-2.4 1.7a8.5 8.5 0 00-2.3 6A8.6 8.6 0 00156 32a7.7 7.7 0 005.4 2.4c1.1 0 2.1-.2 3-.6 1-.4 1.8-1 2.5-1.8a8.5 8.5 0 002.3-5.9zm6.8 0a14.2 14.2 0 01-14.6 14.4A14.5 14.5 0 01147 26.2a14.7 14.7 0 018.9-13.2 14.6 14.6 0 0119 7.6c.8 1.7 1.2 3.6 1.2 5.6zm-31.4 13.5a9.1 9.1 0 01-4 .9c-1 0-1.9-.2-2.8-.4-1-.3-1.8-.7-2.5-1.3a6.3 6.3 0 01-1.6-2.4c-.4-1-.6-2-.6-3.4V.7h7V32c0 1.1.1 1.9.6 2.3.4.4 1 .6 1.6.6a4 4 0 002.3-.7v5.6zM130 12.5L117.8 45a11 11 0 01-3.6 5.3 8.8 8.8 0 01-7.4 1.3l-2.3-6.3a9 9 0 003.3.8c1 0 2-.3 3-.8.8-.4 1.5-1.3 2-2.7l.9-2.7-10.5-27.3h7.4l6.2 17.6 6-17.6h7.2zm-28.5-4H83.8v8.7h17.5v6H83.8v16.6h-7.2V2.2h25v6.2z" fill="#fff"/></svg>